P1
#test for UNBLACKEDEDGES
5 5
0 0 0 0 0
0 0 1 1 1
0 0 0 1 0
0 0 0 0 0
0 0 0 0 0